<svg width="104" height="32" viewBox="0 0 104 32" fill="none" xmlns="http://www.w3.org/2000/svg">
<path d="M10.9219 13.2734L9.59375 17.7734H12.2266L10.9219 13.2734Z" fill="white"/>
<path fill-rule="evenodd" clip-rule="evenodd" d="M16 32C24.8366 32 32 24.8366 32 16C32 7.16344 24.8366 0 16 0C7.16344 0 0 7.16344 0 16C0 24.8366 7.16344 32 16 32ZM13.4531 22L12.6875 19.3828H9.11719L8.34375 22H6.39062L10.0938 10.625H11.7578L15.3984 22H13.4531ZM17.0547 12.1797V10.625H23.7578V12.1797H21.3281V20.4531H23.7578V22H17.0547V20.4531H19.4297V12.1797H17.0547Z" fill="white"/>
<path d="M48.8438 18.5H46.9609C46.9297 18.8438 46.862 19.1484 46.7578 19.4141C46.6536 19.6797 46.5156 19.901 46.3438 20.0781C46.1667 20.2604 45.9531 20.3984 45.7031 20.4922C45.4531 20.5859 45.1667 20.6328 44.8438 20.6328C44.5729 20.6328 44.3307 20.5964 44.1172 20.5234C43.9089 20.4453 43.724 20.3333 43.5625 20.1875C43.4062 20.0521 43.2708 19.8906 43.1562 19.7031C43.0469 19.5156 42.9557 19.3073 42.8828 19.0781C42.7891 18.8021 42.7188 18.4974 42.6719 18.1641C42.6302 17.8307 42.6094 17.474 42.6094 17.0938V15.5234C42.6094 15.2161 42.625 14.9167 42.6562 14.625C42.6927 14.3281 42.7448 14.0495 42.8125 13.7891C42.901 13.4922 43.013 13.224 43.1484 12.9844C43.2891 12.7396 43.4635 12.5417 43.6719 12.3906C43.8229 12.2656 43.9948 12.1693 44.1875 12.1016C44.3854 12.0339 44.6068 12 44.8516 12C45.2005 12 45.5 12.0521 45.75 12.1562C46 12.2552 46.2109 12.401 46.3828 12.5938C46.5495 12.7865 46.6797 13.0208 46.7734 13.2969C46.8724 13.5677 46.9375 13.8724 46.9688 14.2109H48.8438C48.7865 13.6432 48.6589 13.1276 48.4609 12.6641C48.2682 12.2005 48.0026 11.8047 47.6641 11.4766C47.3307 11.1536 46.9271 10.9036 46.4531 10.7266C45.9844 10.5495 45.4505 10.4609 44.8516 10.4609C44.4089 10.4609 44 10.5208 43.625 10.6406C43.2552 10.7604 42.9167 10.9271 42.6094 11.1406C42.2865 11.375 42 11.6589 41.75 11.9922C41.5052 12.3203 41.3047 12.6875 41.1484 13.0938C41.0026 13.4583 40.8932 13.8464 40.8203 14.2578C40.7474 14.6693 40.7109 15.0964 40.7109 15.5391V17.0938C40.7109 17.5573 40.7474 18.0026 40.8203 18.4297C40.8984 18.8568 41.013 19.2526 41.1641 19.6172C41.3151 19.987 41.5 20.3281 41.7188 20.6406C41.9427 20.9479 42.2031 21.2109 42.5 21.4297C42.8073 21.6641 43.1562 21.8464 43.5469 21.9766C43.9427 22.1016 44.375 22.1641 44.8438 22.1641C45.4167 22.1641 45.9375 22.0781 46.4062 21.9062C46.8802 21.7292 47.2891 21.4792 47.6328 21.1562C47.9714 20.8385 48.2448 20.4557 48.4531 20.0078C48.6615 19.5547 48.7917 19.0521 48.8438 18.5Z" fill="white"/>
<path d="M50.4766 17.6953V17.8594C50.4766 18.4792 50.5651 19.0495 50.7422 19.5703C50.9193 20.0911 51.1771 20.5443 51.5156 20.9297C51.849 21.3151 52.2604 21.6172 52.75 21.8359C53.2396 22.0547 53.7943 22.1641 54.4141 22.1641C55.0286 22.1641 55.5781 22.0547 56.0625 21.8359C56.5521 21.6172 56.9635 21.3151 57.2969 20.9297C57.6302 20.5443 57.8854 20.0911 58.0625 19.5703C58.2396 19.0495 58.3281 18.4792 58.3281 17.8594V17.6953C58.3281 17.0807 58.2396 16.513 58.0625 15.9922C57.8854 15.4661 57.6302 15.0104 57.2969 14.625C56.9583 14.2396 56.5443 13.9375 56.0547 13.7188C55.5703 13.5 55.0182 13.3906 54.3984 13.3906C53.7786 13.3906 53.2266 13.5 52.7422 13.7188C52.2578 13.9375 51.849 14.2396 51.5156 14.625C51.1771 15.0104 50.9193 15.4661 50.7422 15.9922C50.5651 16.513 50.4766 17.0807 50.4766 17.6953ZM52.3438 17.8594V17.6953C52.3438 17.3255 52.3828 16.9714 52.4609 16.6328C52.5443 16.2943 52.6719 15.9974 52.8438 15.7422C53.0104 15.487 53.2214 15.2839 53.4766 15.1328C53.737 14.9818 54.0443 14.9062 54.3984 14.9062C54.7578 14.9062 55.0651 14.9818 55.3203 15.1328C55.5807 15.2839 55.7969 15.487 55.9688 15.7422C56.1302 15.9974 56.2526 16.2943 56.3359 16.6328C56.4193 16.9714 56.4609 17.3255 56.4609 17.6953V17.8594C56.4609 18.2396 56.4193 18.599 56.3359 18.9375C56.2578 19.276 56.1354 19.5729 55.9688 19.8281C55.8021 20.0833 55.5885 20.2865 55.3281 20.4375C55.0677 20.5833 54.763 20.6562 54.4141 20.6562C54.0547 20.6562 53.7448 20.5833 53.4844 20.4375C53.224 20.2865 53.0104 20.0833 52.8438 19.8281C52.6719 19.5729 52.5443 19.276 52.4609 18.9375C52.3828 18.599 52.3438 18.2396 52.3438 17.8594Z" fill="white"/>
<path d="M60.7891 10V11.5547H63.4609V20.4531H60.7891V22H67.9062V20.4531H65.3438V10H60.7891Z" fill="white"/>
<path d="M69.6953 17.6953V17.8594C69.6953 18.4792 69.7839 19.0495 69.9609 19.5703C70.138 20.0911 70.3958 20.5443 70.7344 20.9297C71.0677 21.3151 71.4792 21.6172 71.9688 21.8359C72.4583 22.0547 73.013 22.1641 73.6328 22.1641C74.2474 22.1641 74.7969 22.0547 75.2812 21.8359C75.7708 21.6172 76.1823 21.3151 76.5156 20.9297C76.849 20.5443 77.1042 20.0911 77.2812 19.5703C77.4583 19.0495 77.5469 18.4792 77.5469 17.8594V17.6953C77.5469 17.0807 77.4583 16.513 77.2812 15.9922C77.1042 15.4661 76.849 15.0104 76.5156 14.625C76.1771 14.2396 75.763 13.9375 75.2734 13.7188C74.7891 13.5 74.237 13.3906 73.6172 13.3906C72.9974 13.3906 72.4453 13.5 71.9609 13.7188C71.4766 13.9375 71.0677 14.2396 70.7344 14.625C70.3958 15.0104 70.138 15.4661 69.9609 15.9922C69.7839 16.513 69.6953 17.0807 69.6953 17.6953ZM71.5625 17.8594V17.6953C71.5625 17.3255 71.6016 16.9714 71.6797 16.6328C71.763 16.2943 71.8906 15.9974 72.0625 15.7422C72.2292 15.487 72.4401 15.2839 72.6953 15.1328C72.9557 14.9818 73.263 14.9062 73.6172 14.9062C73.9766 14.9062 74.2839 14.9818 74.5391 15.1328C74.7995 15.2839 75.0156 15.487 75.1875 15.7422C75.349 15.9974 75.4714 16.2943 75.5547 16.6328C75.638 16.9714 75.6797 17.3255 75.6797 17.6953V17.8594C75.6797 18.2396 75.638 18.599 75.5547 18.9375C75.4766 19.276 75.3542 19.5729 75.1875 19.8281C75.0208 20.0833 74.8073 20.2865 74.5469 20.4375C74.2865 20.5833 73.9818 20.6562 73.6328 20.6562C73.2734 20.6562 72.9635 20.5833 72.7031 20.4375C72.4427 20.2865 72.2292 20.0833 72.0625 19.8281C71.8906 19.5729 71.763 19.276 71.6797 18.9375C71.6016 18.599 71.5625 18.2396 71.5625 17.8594Z" fill="white"/>
<path d="M85.1719 19.7109C85.1719 19.8464 85.1406 19.9714 85.0781 20.0859C85.0208 20.1953 84.9323 20.2969 84.8125 20.3906C84.6667 20.5052 84.4714 20.5964 84.2266 20.6641C83.987 20.7318 83.7057 20.7656 83.3828 20.7656C83.1432 20.7656 82.9062 20.7422 82.6719 20.6953C82.4375 20.6432 82.2292 20.5599 82.0469 20.4453C81.8594 20.3359 81.7031 20.1927 81.5781 20.0156C81.4583 19.8333 81.3906 19.612 81.375 19.3516H79.5625C79.5625 19.7005 79.6458 20.0443 79.8125 20.3828C79.9792 20.7214 80.224 21.0208 80.5469 21.2812C80.8646 21.5469 81.2578 21.7604 81.7266 21.9219C82.2005 22.0833 82.7422 22.1641 83.3516 22.1641C83.8984 22.1641 84.3958 22.1016 84.8438 21.9766C85.2917 21.8516 85.6771 21.6771 86 21.4531C86.3177 21.2292 86.5625 20.9609 86.7344 20.6484C86.9115 20.3359 87 19.9922 87 19.6172C87 19.2318 86.9167 18.8984 86.75 18.6172C86.5833 18.3359 86.349 18.0911 86.0469 17.8828C85.7448 17.6849 85.3802 17.5182 84.9531 17.3828C84.526 17.2474 84.0547 17.1328 83.5391 17.0391C83.1693 16.9766 82.862 16.9062 82.6172 16.8281C82.3776 16.75 82.1901 16.6641 82.0547 16.5703C81.9089 16.4818 81.8073 16.3802 81.75 16.2656C81.6927 16.1458 81.6641 16.013 81.6641 15.8672C81.6641 15.7266 81.6979 15.5938 81.7656 15.4688C81.8333 15.3385 81.9349 15.2266 82.0703 15.1328C82.2057 15.0286 82.3776 14.9479 82.5859 14.8906C82.7995 14.8281 83.0469 14.7969 83.3281 14.7969C83.6354 14.7969 83.9036 14.8385 84.1328 14.9219C84.362 15 84.5495 15.1068 84.6953 15.2422C84.8203 15.3568 84.9141 15.487 84.9766 15.6328C85.0443 15.7734 85.0781 15.9219 85.0781 16.0781H86.9453C86.9453 15.6979 86.862 15.3438 86.6953 15.0156C86.5286 14.6875 86.2917 14.4036 85.9844 14.1641C85.6719 13.9245 85.2917 13.737 84.8438 13.6016C84.3958 13.4609 83.8906 13.3906 83.3281 13.3906C82.8021 13.3906 82.3229 13.4583 81.8906 13.5938C81.4635 13.7292 81.099 13.9141 80.7969 14.1484C80.4896 14.3828 80.2526 14.6562 80.0859 14.9688C79.9245 15.276 79.8438 15.6016 79.8438 15.9453C79.8438 16.3047 79.9245 16.6198 80.0859 16.8906C80.2474 17.1615 80.4714 17.3958 80.7578 17.5938C81.0495 17.8021 81.3958 17.9792 81.7969 18.125C82.2031 18.2708 82.651 18.3932 83.1406 18.4922C83.5312 18.5651 83.8568 18.6432 84.1172 18.7266C84.3776 18.8099 84.5885 18.8984 84.75 18.9922C84.901 19.0964 85.0078 19.2057 85.0703 19.3203C85.138 19.4349 85.1719 19.5651 85.1719 19.7109Z" fill="white"/>
<path d="M88.9141 17.6953V17.8594C88.9141 18.4792 89.0026 19.0495 89.1797 19.5703C89.3568 20.0911 89.6146 20.5443 89.9531 20.9297C90.2865 21.3151 90.6979 21.6172 91.1875 21.8359C91.6771 22.0547 92.2318 22.1641 92.8516 22.1641C93.4661 22.1641 94.0156 22.0547 94.5 21.8359C94.9896 21.6172 95.401 21.3151 95.7344 20.9297C96.0677 20.5443 96.3229 20.0911 96.5 19.5703C96.6771 19.0495 96.7656 18.4792 96.7656 17.8594V17.6953C96.7656 17.0807 96.6771 16.513 96.5 15.9922C96.3229 15.4661 96.0677 15.0104 95.7344 14.625C95.3958 14.2396 94.9818 13.9375 94.4922 13.7188C94.0078 13.5 93.4557 13.3906 92.8359 13.3906C92.2161 13.3906 91.6641 13.5 91.1797 13.7188C90.6953 13.9375 90.2865 14.2396 89.9531 14.625C89.6146 15.0104 89.3568 15.4661 89.1797 15.9922C89.0026 16.513 88.9141 17.0807 88.9141 17.6953ZM90.7812 17.8594V17.6953C90.7812 17.3255 90.8203 16.9714 90.8984 16.6328C90.9818 16.2943 91.1094 15.9974 91.2812 15.7422C91.4479 15.487 91.6589 15.2839 91.9141 15.1328C92.1745 14.9818 92.4818 14.9062 92.8359 14.9062C93.1953 14.9062 93.5026 14.9818 93.7578 15.1328C94.0182 15.2839 94.2344 15.487 94.4062 15.7422C94.5677 15.9974 94.6901 16.2943 94.7734 16.6328C94.8568 16.9714 94.8984 17.3255 94.8984 17.6953V17.8594C94.8984 18.2396 94.8568 18.599 94.7734 18.9375C94.6953 19.276 94.5729 19.5729 94.4062 19.8281C94.2396 20.0833 94.026 20.2865 93.7656 20.4375C93.5052 20.5833 93.2005 20.6562 92.8516 20.6562C92.4922 20.6562 92.1823 20.5833 91.9219 20.4375C91.6615 20.2865 91.4479 20.0833 91.2812 19.8281C91.1094 19.5729 90.9818 19.276 90.8984 18.9375C90.8203 18.599 90.7812 18.2396 90.7812 17.8594Z" fill="white"/>
<path d="M101.195 20.875C101.195 21.2344 101.312 21.5391 101.547 21.7891C101.786 22.0339 102.12 22.1562 102.547 22.1562C102.969 22.1562 103.299 22.0339 103.539 21.7891C103.784 21.5443 103.906 21.2396 103.906 20.875C103.906 20.5104 103.786 20.2031 103.547 19.9531C103.307 19.6979 102.974 19.5703 102.547 19.5703C102.109 19.5703 101.773 19.6979 101.539 19.9531C101.31 20.2083 101.195 20.5156 101.195 20.875Z" fill="white"/>
</svg>
